<?xml version="1.0" encoding="UTF-8"?>
<svg xmlns="http://www.w3.org/2000/svg" xmlns:xlink="http://www.w3.org/1999/xlink" viewBox="0 0 48 48" width="48px" height="48px">
<defs>
<radialGradient id="radial0" gradientUnits="userSpaceOnUse" cx="19.379999" cy="42.035" fx="19.379999" fy="42.035" r="44.898998" gradientTransform="matrix(0.70833,0,0,0.70833,6.999999,6.999999)">
<stop offset="0" style="stop-color:rgb(100%,86.666667%,33.333334%);stop-opacity:1;"/>
<stop offset="0.328" style="stop-color:rgb(100%,32.941177%,24.705882%);stop-opacity:1;"/>
<stop offset="0.348" style="stop-color:rgb(98.823529%,32.156864%,27.058825%);stop-opacity:1;"/>
<stop offset="0.504" style="stop-color:rgb(90.196079%,27.843139%,44.313726%);stop-opacity:1;"/>
<stop offset="0.643" style="stop-color:rgb(83.529413%,24.313726%,56.862748%);stop-opacity:1;"/>
<stop offset="0.761" style="stop-color:rgb(80.000001%,22.352941%,64.313728%);stop-opacity:1;"/>
<stop offset="0.841" style="stop-color:rgb(78.431374%,21.568628%,67.058825%);stop-opacity:1;"/>
</radialGradient>
<radialGradient id="radial1" gradientUnits="userSpaceOnUse" cx="11.786" cy="5.5403" fx="11.786" fy="5.5403" r="29.813" gradientTransform="matrix(0.70833,0,0,0.70833,6.999999,6.999999)">
<stop offset="0" style="stop-color:rgb(25.490198%,40.784314%,78.823531%);stop-opacity:1;"/>
<stop offset="0.999" style="stop-color:rgb(25.490198%,40.784314%,78.823531%);stop-opacity:0;"/>
</radialGradient>
</defs>
<g id="surface160859291">
<path style=" stroke:none;fill-rule:nonzero;fill:url(#radial0);" d="M 31.09375 36.742188 L 16.929688 36.757812 C 13.8125 36.757812 11.261719 34.210938 11.257812 31.09375 L 11.242188 16.929688 C 11.238281 13.8125 13.789062 11.261719 16.902344 11.257812 L 31.070312 11.242188 C 34.1875 11.238281 36.738281 13.789062 36.742188 16.902344 L 36.757812 31.070312 C 36.757812 34.1875 34.210938 36.738281 31.09375 36.742188 Z M 31.09375 36.742188 "/>
<path style=" stroke:none;fill-rule:nonzero;fill:url(#radial1);" d="M 31.09375 36.742188 L 16.929688 36.757812 C 13.8125 36.757812 11.261719 34.210938 11.257812 31.09375 L 11.242188 16.929688 C 11.238281 13.8125 13.789062 11.261719 16.902344 11.257812 L 31.070312 11.242188 C 34.1875 11.238281 36.738281 13.789062 36.742188 16.902344 L 36.757812 31.070312 C 36.757812 34.1875 34.210938 36.738281 31.09375 36.742188 Z M 31.09375 36.742188 "/>
<path style=" stroke:none;fill-rule:nonzero;fill:rgb(100%,100%,100%);fill-opacity:1;" d="M 24 28.957031 C 21.265625 28.957031 19.042969 26.734375 19.042969 24 C 19.042969 21.265625 21.265625 19.042969 24 19.042969 C 26.734375 19.042969 28.957031 21.265625 28.957031 24 C 28.957031 26.734375 26.734375 28.957031 24 28.957031 Z M 24 20.457031 C 22.046875 20.457031 20.457031 22.046875 20.457031 24 C 20.457031 25.953125 22.046875 27.542969 24 27.542969 C 25.953125 27.542969 27.542969 25.953125 27.542969 24 C 27.542969 22.046875 25.953125 20.457031 24 20.457031 Z M 24 20.457031 "/>
<path style=" stroke:none;fill-rule:nonzero;fill:rgb(100%,100%,100%);fill-opacity:1;" d="M 30.375 18.6875 C 30.375 19.273438 29.898438 19.75 29.3125 19.75 C 28.726562 19.75 28.25 19.273438 28.25 18.6875 C 28.25 18.101562 28.726562 17.625 29.3125 17.625 C 29.898438 17.625 30.375 18.101562 30.375 18.6875 Z M 30.375 18.6875 "/>
<path style=" stroke:none;fill-rule:nonzero;fill:rgb(100%,100%,100%);fill-opacity:1;" d="M 28.25 33.207031 L 19.75 33.207031 C 17.015625 33.207031 14.792969 30.984375 14.792969 28.25 L 14.792969 19.75 C 14.792969 17.015625 17.015625 14.792969 19.75 14.792969 L 28.25 14.792969 C 30.984375 14.792969 33.207031 17.015625 33.207031 19.75 L 33.207031 28.25 C 33.207031 30.984375 30.984375 33.207031 28.25 33.207031 Z M 19.75 16.207031 C 17.796875 16.207031 16.207031 17.796875 16.207031 19.75 L 16.207031 28.25 C 16.207031 30.203125 17.796875 31.792969 19.75 31.792969 L 28.25 31.792969 C 30.203125 31.792969 31.792969 30.203125 31.792969 28.25 L 31.792969 19.75 C 31.792969 17.796875 30.203125 16.207031 28.25 16.207031 Z M 19.75 16.207031 "/>
</g>
</svg>
