<?xml version="1.0" encoding="UTF-8"?>
<svg xmlns="http://www.w3.org/2000/svg" xmlns:xlink="http://www.w3.org/1999/xlink" viewBox="0 0 48 48" width="48px" height="48px">
<defs>
<linearGradient id="linear0" gradientUnits="userSpaceOnUse" x1="9.993" y1="9.993" x2="40.615002" y2="40.615002" gradientTransform="matrix(0.70833,0,0,0.70833,6.999999,6.999999)">
<stop offset="0" style="stop-color:rgb(16.470589%,64.313728%,95.686275%);stop-opacity:1;"/>
<stop offset="1" style="stop-color:rgb(0%,47.843137%,85.09804%);stop-opacity:1;"/>
</linearGradient>
</defs>
<g id="surface161157044">
<path style=" stroke:none;fill-rule:nonzero;fill:url(#linear0);" d="M 24 9.832031 C 16.175781 9.832031 9.832031 16.175781 9.832031 24 C 9.832031 31.824219 16.175781 38.167969 24 38.167969 C 31.824219 38.167969 38.167969 31.824219 38.167969 24 C 38.167969 16.175781 31.824219 9.832031 24 9.832031 Z M 24 9.832031 "/>
<path style=" stroke:none;fill-rule:nonzero;fill:rgb(100%,100%,100%);fill-opacity:1;" d="M 25.917969 27.753906 L 29.582031 27.753906 L 30.160156 24.03125 L 25.917969 24.03125 L 25.917969 21.996094 C 25.917969 20.449219 26.421875 19.074219 27.871094 19.074219 L 30.195312 19.074219 L 30.195312 15.824219 C 29.785156 15.769531 28.921875 15.648438 27.289062 15.648438 C 23.878906 15.648438 21.882812 17.449219 21.882812 21.554688 L 21.882812 24.03125 L 18.375 24.03125 L 18.375 27.753906 L 21.878906 27.753906 L 21.878906 37.992188 C 22.574219 38.09375 23.277344 38.167969 24 38.167969 C 24.652344 38.167969 25.289062 38.105469 25.917969 38.023438 Z M 25.917969 27.753906 "/>
</g>
</svg>
