<?xml version="1.0" encoding="UTF-8"?>
<svg xmlns="http://www.w3.org/2000/svg" xmlns:xlink="http://www.w3.org/1999/xlink" viewBox="0 0 48 48" width="48px" height="48px">
<g id="surface161148851">
<path style=" stroke:none;fill-rule:nonzero;fill:rgb(1.176471%,66.274512%,95.686275%);fill-opacity:1;" d="M 36.75 15.804688 C 35.8125 16.21875 34.804688 16.496094 33.742188 16.625 C 34.824219 15.984375 35.652344 14.960938 36.042969 13.753906 C 35.03125 14.34375 33.914062 14.78125 32.71875 15.011719 C 31.769531 14 30.410156 13.375 28.90625 13.375 C 26.015625 13.375 23.671875 15.695312 23.671875 18.558594 C 23.671875 18.964844 23.722656 19.359375 23.808594 19.742188 C 19.460938 19.523438 15.605469 17.457031 13.027344 14.320312 C 12.574219 15.085938 12.316406 15.984375 12.316406 16.933594 C 12.316406 18.730469 13.238281 20.316406 14.644531 21.25 C 13.789062 21.222656 12.980469 20.984375 12.273438 20.601562 C 12.273438 20.617188 12.273438 20.640625 12.273438 20.664062 C 12.273438 23.179688 14.078125 25.273438 16.46875 25.75 C 16.03125 25.871094 15.570312 25.9375 15.09375 25.9375 C 14.753906 25.9375 14.425781 25.898438 14.105469 25.839844 C 14.773438 27.894531 16.703125 29.398438 18.992188 29.445312 C 17.203125 30.832031 14.949219 31.664062 12.496094 31.664062 C 12.070312 31.664062 11.65625 31.640625 11.246094 31.589844 C 13.566406 33.054688 16.316406 33.917969 19.269531 33.917969 C 28.890625 33.917969 34.15625 26.015625 34.15625 19.160156 C 34.15625 18.933594 34.148438 18.710938 34.136719 18.488281 C 35.164062 17.765625 36.050781 16.847656 36.75 15.804688 "/>
</g>
</svg>
